# Blender 3.1.0
# www.blender.org
mtllib Skybox.mtl
o Cube
v -1.000000 1.000000 -1.000000
v -1.000000 -1.000000 -1.000000
v -1.000000 1.000000 1.000000
v -1.000000 -1.000000 1.000000
v 1.000000 1.000000 -1.000000
v 1.000000 -1.000000 -1.000000
v 1.000000 1.000000 1.000000
v 1.000000 -1.000000 1.000000
vn 1.0000 -0.0000 -0.0000
vn -0.0000 -0.0000 -1.0000
vn -1.0000 -0.0000 -0.0000
vn -0.0000 -0.0000 1.0000
vn -0.0000 -1.0000 -0.0000
vn -0.0000 1.0000 -0.0000
vt 0.999849 0.665356
vt 0.000152 0.665356
vt 0.250076 0.999974
vt 0.999849 0.333586
vt 0.000152 0.333586
vt 0.250076 0.000026
vt 0.749924 0.665356
vt 0.500000 0.999974
vt 0.749924 0.333586
vt 0.500000 0.000026
vt 0.250076 0.665356
vt 0.250076 0.333586
vt 0.500000 0.665356
vt 0.500000 0.333586
s 1
usemtl Material.001
f 1/1/1 3/7/1 4/9/1 2/4/1
f 3/7/2 7/13/2 8/14/2 4/9/2
f 7/13/3 5/11/3 6/12/3 8/14/3
f 5/11/4 1/2/4 2/5/4 6/12/4
f 3/8/5 1/3/5 5/11/5 7/13/5
f 8/14/6 6/12/6 2/6/6 4/10/6
